<?xml version="1.0"?>
<svg xmlns:rdf="http://www.w3.org/1999/02/22-rdf-syntax-ns#" xmlns="http://www.w3.org/2000/svg"
  xmlns:cc="http://creativecommons.org/ns#" xmlns:xlink="http://www.w3.org/1999/xlink"
  xmlns:dc="http://purl.org/dc/elements/1.1/" xmlns:svg="http://www.w3.org/2000/svg" id="svg2"
  viewBox="0 0 440.63 475.23" version="1.1">
  <defs id="defs4">
    <linearGradient id="linearGradient31765">
      <stop id="stop31767" stop-color="#16151a" stop-opacity="0" offset="0" />
      <stop id="stop32650" stop-color="#16151a" offset="0" />
      <stop id="stop31769" stop-color="#16151a" stop-opacity="0" offset="1" />
    </linearGradient>
    <linearGradient id="linearGradient16303">
      <stop id="stop16305" stop-color="#161616" offset="0" />
      <stop id="stop16307" stop-color="#565656" offset="1" />
    </linearGradient>
    <linearGradient id="linearGradient3191" x1="375.39" xlink:href="#linearGradient16303" gradientUnits="userSpaceOnUse"
      x2="395.6" y1="294.52" y2="260.23" />
    <linearGradient id="linearGradient3193" x1="367.37" xlink:href="#linearGradient16303" gradientUnits="userSpaceOnUse"
      x2="330.72" y1="301.5" y2="257.13" />
    <linearGradient id="linearGradient3195" x1="343.33" xlink:href="#linearGradient16303" gradientUnits="userSpaceOnUse"
      x2="393.3" y1="280.64" y2="254.48" />
    <linearGradient id="linearGradient3197" x1="393.31" xlink:href="#linearGradient16303" gradientUnits="userSpaceOnUse"
      x2="331.78" y1="287.96" y2="252.96" />
    <linearGradient id="linearGradient3199" x1="581.5" xlink:href="#linearGradient16303" gradientUnits="userSpaceOnUse"
      x2="363.63" y1="595.36" y2="595.36" />
    <linearGradient id="linearGradient3201" x1="225.5" xlink:href="#linearGradient16303" gradientUnits="userSpaceOnUse"
      x2="166.5" y1="625.81" y2="615.81" />
    <linearGradient id="linearGradient3203" x1="214" xlink:href="#linearGradient16303" gradientUnits="userSpaceOnUse"
      x2="264.5" y1="644.11" y2="644.11" />
    <linearGradient id="linearGradient3205" x1="390.52" xlink:href="#linearGradient16303" gradientUnits="userSpaceOnUse"
      x2="1.1177" y1="606.75" y2="598.16" />
    <linearGradient id="linearGradient3207" x1="479.7" xlink:href="#linearGradient16303" gradientUnits="userSpaceOnUse"
      x2="259.05" y1="540.8" y2="375.8" />
    <linearGradient id="linearGradient3209" x1="214.97" xlink:href="#linearGradient31765" gradientUnits="userSpaceOnUse"
      y1="655.86" gradientTransform="translate(.82056 -117)" x2="238.5" y2="662.36" />
    <linearGradient id="linearGradient3211" x1="214.97" xlink:href="#linearGradient31765" gradientUnits="userSpaceOnUse"
      y1="655.86" gradientTransform="matrix(1.38 0 0 1.1632 -25.71 -226.3)" x2="234.66" y2="659.02" />
    <linearGradient id="linearGradient3213" x1="214.97" xlink:href="#linearGradient31765" gradientUnits="userSpaceOnUse"
      y1="655.86" gradientTransform="matrix(1.3864 0 0 .98641 42.935 -91.599)" x2="232.24" y2="655.91" />
    <linearGradient id="linearGradient3215" x1="217.93" xlink:href="#linearGradient31765" gradientUnits="userSpaceOnUse"
      y1="683.33" gradientTransform="matrix(-1.8097 0 0 1.326 862.83 -376.39)" x2="228.93" y2="690.63" />
    <linearGradient id="linearGradient3217" x1="300.9" xlink:href="#linearGradient31765" gradientUnits="userSpaceOnUse"
      y1="405.98" gradientTransform="translate(2.4749 -2.1213)" x2="346.45" y2="403.33" />
    <linearGradient id="linearGradient3219" x1="300.9" xlink:href="#linearGradient31765" gradientUnits="userSpaceOnUse"
      y1="405.98" gradientTransform="translate(-.70711 7.294)" x2="346.45" y2="403.33" />
    <linearGradient id="linearGradient3221" x1="300.9" xlink:href="#linearGradient31765" gradientUnits="userSpaceOnUse"
      y1="405.98" gradientTransform="matrix(-1.3097 0 0 1 827.44 .2559)" x2="337.14" y2="412.34" />
  </defs>
  <g id="layer19" transform="translate(-156.5 -243.31)">
    <g id="g3163">
      <path id="path23340" stroke="#000" stroke-width="1px" fill="none"
        d="m343 479.36c9 11 31.5 25.5 31.5 25.5s25-16.5 30-25.5" />
      <path id="path23344" transform="translate(2,5.5)" fill="#fcddbf"
        d="m326 333.86c0 1.3807-1.1193 2.5-2.5 2.5s-2.5-1.1193-2.5-2.5 1.1193-2.5 2.5-2.5 2.5 1.1193 2.5 2.5z" />
      <path id="path24219" transform="translate(88.5,5.5)" fill="#fcddbf"
        d="m326 333.86c0 1.3807-1.1193 2.5-2.5 2.5s-2.5-1.1193-2.5-2.5 1.1193-2.5 2.5-2.5 2.5 1.1193 2.5 2.5z" />
      <path id="path5799"
        d="m394.21 253.33 4.4194 3.3588c-1.2374 3.7123-41.366 56.922-43.841 56.745l-2.6516-3.8891c2.2981-1.0607 41.366-52.326 42.073-56.215z"
        fill-rule="evenodd" stroke="#000" stroke-width="1px" fill="url(#linearGradient3191)" />
      <path id="path5797"
        d="m329.16 256.34 4.9497-2.6516c-1.2374 4.2426 41.366 57.629 44.017 58.69l-2.8284 3.7123c-4.5962-0.17678-43.841-52.149-46.139-59.751z"
        fill-rule="evenodd" stroke="#000" stroke-width="1px" fill="url(#linearGradient3193)" />
      <path id="path5795"
        d="m397.92 253.69c-5.1265 4.773-56.569 34.648-64.877 35.709l-3.3588-4.2426c9.1924-0.35355 61.695-31.82 66.998-35.886l1.2374 4.4194z"
        fill-rule="evenodd" stroke="#000" stroke-width="1px" fill="url(#linearGradient3195)" />
      <path id="path5793"
        d="m330.57 249.09c2.8284 5.6568 65.761 39.952 69.473 40.482l-2.4749 3.0052c-7.0711-0.88388-65.938-34.825-68.943-39.244 0 0-1.186-4.6898 1.9445-4.2426z"
        fill-rule="evenodd" stroke="#000" stroke-width="1px" fill="url(#linearGradient3197)" />
      <path id="path2248"
        d="m533.5 539.86c9 4.5 53.5 73 61.5 82.5 0 0 5 6-2.5 9-5.2931 2.1172-8.5-2-9.5 7.5-0.61041 5.7989-11 12-11 12l-90-109.5 51.5-1.5z"
        fill-rule="evenodd" stroke="#000" stroke-width="1px" fill="url(#linearGradient3199)" />
      <path id="path2242"
        d="m170 577.36c-4.75 15.5-11.25 33.625-13 50 10.75 20.875 20.75 32 36 27.5 2.75-11 8.25-46.125 15-69.5-5.75-9.375-24.25-11.5-38-8z"
        fill-rule="evenodd" stroke="#000" stroke-width="1px" fill="url(#linearGradient3201)" />
      <path id="path2254" d="m241.5 685.86c13-19.5 18.5-59.5 21.5-64l1 0.5-18.5-20-31 51 27 32.5z" fill-rule="evenodd"
        stroke="#000" stroke-width="1px" fill="url(#linearGradient3203)" />
      <path id="path2244"
        d="m262 474.36c-71.009 67.848-79.873 172.15-80 199.5 52.767 43.765 69.389 9.0702 57.5-10.5-8.0351-13.226-2.4771-26.794 4.5-28 13.273-2.2941 18.215 10.966 24 21 7.638 13.248 15.322 31.816 26.5 45.5 10.231 12.524 19.125 19 30.5 15 9.6155-3.3813 9.875-22.125 7-31-4.2775-13.205-8.25-15.75-8.5-24.5 10.25 9.25 18.031 20.537 27.5 27.5 23.336 17.16 34.989 28.59 52 14 8.6708-7.4366 8.1439-10.609 18-12 9.1377-1.2896 24.25 8.5 37.5-1 14.189-10.173 26.51-13.617 23.5-33-1.6115-10.376 9.2662-35.033 20.5-34 10.875 1 13.637 14.501 23 22 13.093 10.486 40.875 18 56.5 7.5-11.375-18-34.125-38.875-52-59.5-37.48-43.246-44.977-71.395-83.5-125-16.36-22.765-165.17-11.971-184.5 6.5z"
        fill-rule="evenodd" stroke="#000" stroke-width="1px" fill="url(#linearGradient3205)" />
      <path id="path2250" stroke="#000" stroke-width="1px" fill="none" d="m238 639.36c-0.5-10 20.5-74 26-79.5" />
      <path id="path2256" stroke="#000" stroke-width="1px" fill="none" d="m508 624.36c-4-11-39-74-45.5-78" />
      <path id="path2252" stroke="#000" stroke-width="1px" fill="none" d="m323 661.86c9-18.5 26.5-114 25.5-122.5" />
      <path id="path14547"
        d="m320 243.86c4.1679 1.6584 9.5992 2.1241 12.5 3.5 0 1.7678-4.5968 26.615-3.5 33 11.88 10.097 35.517 37.771 39 38.5 2.7758-0.68566 18.968-21.121 31.5-37 0.33426-3.8579-5.3447-30.057-4.1768-33.138 2.6945 0.52449 7.9874-0.37869 11.146-0.2212 0.58947 2.7396 3.0999 28.411 5.5303 33.359 37.255 55.329 26.897 75.188 12.5 110-2.3765 0.16395-1.6679 3.7374-0.26256 4.3232 0.875 2 1.568 0.89645 2.7019 3.6768 0.25 2.25-1.9127 2.7123-2.9393 5.5-0.84987 2.0806 1.7494 6.0208 10.5 20.5 21.125 26.5 61.574 73.062 74 85.5 9.4207 6.2513 41.572 29.661 45 38.5-10.714 20.33-32.197 23.058-52.5 11-4.9237 5.0895-3.9372 12.089-7.5 23.5-12.225 11.587-16.857 10.744-31.5 8-15.173 8.3928-17.374 13.714-20 18.5-3.6863 7.9682-19.735 29.325-40 36-46.428 5.9675-61.451-20.101-73.586-39.177-9.8364-8.1161-14.2-3.1516-20.914 3.1768-4.7699 3.6768-9.1768 10.511-21.5 11-20.278-3.2234-27.998-24.518-28.5-34.5-0.50216-3.4415 0.0429-10.9-2.5-12.5-3.0732-1.2463-6.3713 4.4482-10.5 16-2.0074 5.1878-7.057 29.198-14.5 29.5-22.469 0.125-25.101-24.634-28-29-1.6612-2.4216-4.034 8.8949-14 8-11.38-1.9556-21.459-8.0555-19.5-33.5 19.757-40.063 122.55-143.18 139-157.5-2.6161-3.2374-3.534-4.5761-3-6 0.53033-1.4142 5.6899-0.95881 4.5-2-0.70711-2.1213-1-12-1-12-19.672-28.53-0.51268-92.973 5-104.5 7.955-4.9498 4.2463-29.991 7-40z"
        fill-rule="evenodd" stroke="#000" stroke-width="1.1" fill="url(#linearGradient3207)" />
      <path id="path1355" stroke="#000" stroke-width="1px" fill="none" d="m202 590.36c-2-17 33-78.5 45.5-88" />
      <path id="path1357" stroke="#000" stroke-width="1px" fill="none" d="m252 575.36c4.5-16.5 41-84 55-97.5" />
      <path id="path2236" stroke="#000" stroke-width="1px" fill="none" d="m463 592.36c-26-5.5-65.5-69.5-66-77.5" />
      <path id="path2238" stroke="#000" stroke-width="1px" fill="none" d="m501.5 560.36c-18.5-4-56.5-62.5-56.5-71" />
      <path id="path30890" fill-rule="evenodd" fill="url(#linearGradient3209)"
        d="m252.82 495.86-31.414 42.793s-7.4393 18.418-10.586 24.707c-3.1664 6.329-3 7.125-5 12s-5.4429 17.745-2.8891 21.743l10.768 16.854 12.621-11.596 2.5-13 17.5-63 6.5-30.5z" />
      <path id="path22437" fill-rule="evenodd" fill="url(#linearGradient3211)"
        d="m298.03 489.66-22.336 37.356s-21.328 40.562-23.023 46.731c3.9324 2.2908 3.123 1.8314 4.613 2.002-0.76002 7.1706 2.4115 23.819 6.3696 28.605 2.0605 4.2162 10.872 14.26 10.872 14.26l10.955-8.1424 3.45-15.122 23.388-126.79-14.288 21.104z" />
      <path id="path22441" fill-rule="evenodd" fill="url(#linearGradient3213)"
        d="m358.98 502.89-13.246 44.025s-8.5181 23.828-11.455 30.125c-3.0818 6.6067-7.4464 23.321-9.9329 26.197 3.2879 1.9803 7.1685 6.4847 9.3418 10.957 2.9232 3.9727 7.3212 10.696 7.3212 10.696l14.557-6.9049 3.4659-12.823 5.8756-62.144-5.9272-40.128z" />
      <path id="path22445" fill-rule="evenodd" fill="url(#linearGradient3215)"
        d="m438.26 483.21 18.352 32.664s14.736 15.096 18.57 23.56c4.0228 8.8811 15.707 12.331 19.327 18.795 3.6194 6.4642 1.7858 17.937-4.4457 20.862l-16.323 7.6614-19.002-9.2819-4.5242-17.238-10.145-66.213-1.809-10.809z" />
      <path id="path22449" fill-rule="evenodd" fill="url(#linearGradient3217)"
        d="m307.77 395.11 1.0607 5.4801c4.2426 6.7175 33.059 10.276 48.437 6.0104-5.6568-0.88388-40.659-2.8284-49.497-11.49z" />
      <path id="path23332" fill-rule="evenodd" fill="url(#linearGradient3219)"
        d="m306.53 405.94-0.88387 4.0659c4.2426 6.7175 33.059 10.276 48.437 6.0104-5.6568-0.88388-38.714-1.4142-47.553-10.076z" />
      <path id="path23336" fill-rule="evenodd" fill="url(#linearGradient3221)"
        d="m426.65 399.07-0.4334 3.8891c-5.5565 6.7175-30.216 10.452-50.355 6.1872 7.4087-0.88388 43.102 0.53032 50.789-10.076z" />
    </g>
  </g>
  <metadata>
    <rdf:RDF>
      <cc:Work>
        <dc:format>image/svg+xml</dc:format>
        <dc:type rdf:resource="http://purl.org/dc/dcmitype/StillImage" />
        <cc:license rdf:resource="http://creativecommons.org/licenses/publicdomain/" />
        <dc:publisher>
          <cc:Agent rdf:about="http://openclipart.org/">
            <dc:title>Openclipart</dc:title>
          </cc:Agent>
        </dc:publisher>
        <dc:title>Black Dress</dc:title>
        <dc:date>2009-09-25T00:04:31</dc:date>
        <dc:description>Black dress.</dc:description>
        <dc:source>http://openclipart.org/detail/27548/black-dress-by-secretlondon</dc:source>
        <dc:creator>
          <cc:Agent>
            <dc:title>secretlondon</dc:title>
          </cc:Agent>
        </dc:creator>
        <dc:subject>
          <rdf:Bag>
            <rdf:li>black</rdf:li>
            <rdf:li>clip art</rdf:li>
            <rdf:li>clipart</rdf:li>
            <rdf:li>clothing</rdf:li>
            <rdf:li>dress</rdf:li>
            <rdf:li>image</rdf:li>
            <rdf:li>media</rdf:li>
            <rdf:li>public domain</rdf:li>
            <rdf:li>remix</rdf:li>
            <rdf:li>svg</rdf:li>
          </rdf:Bag>
        </dc:subject>
      </cc:Work>
      <cc:License rdf:about="http://creativecommons.org/licenses/publicdomain/">
        <cc:permits rdf:resource="http://creativecommons.org/ns#Reproduction" />
        <cc:permits rdf:resource="http://creativecommons.org/ns#Distribution" />
        <cc:permits rdf:resource="http://creativecommons.org/ns#DerivativeWorks" />
      </cc:License>
    </rdf:RDF>
  </metadata>
</svg>