<?xml version="1.0" standalone="no"?>
<!DOCTYPE svg PUBLIC "-//W3C//DTD SVG 20010904//EN"
 "http://www.w3.org/TR/2001/REC-SVG-20010904/DTD/svg10.dtd">
<svg version="1.0" xmlns="http://www.w3.org/2000/svg"
 width="1261.000000pt" height="1280.000000pt" viewBox="0 0 1261.000000 1280.000000"
 preserveAspectRatio="xMidYMid meet">
<metadata>
Created by potrace 1.15, written by Peter Selinger 2001-2017
</metadata>
<g transform="translate(0.000000,1280.000000) scale(0.100000,-0.100000)"
fill="#000000" stroke="none">
<path d="M9960 12789 c-329 -41 -584 -212 -684 -458 -82 -202 -75 -469 20
-753 47 -143 164 -375 261 -520 116 -175 237 -323 280 -343 92 -44 203 27 203
128 0 49 -6 60 -100 178 -436 546 -558 1113 -293 1349 199 177 632 184 1211
20 673 -191 1068 -483 1298 -964 112 -235 164 -464 164 -731 0 -519 -219 -978
-542 -1139 -136 -68 -282 -74 -443 -16 -120 43 -375 157 -740 330 -636 302
-933 417 -1250 483 -175 37 -300 50 -480 49 -342 -1 -639 -76 -966 -243 -224
-114 -376 -228 -485 -364 -210 -261 -294 -547 -281 -955 16 -497 197 -1076
568 -1820 170 -340 266 -513 486 -877 l74 -122 120 80 c66 44 118 83 116 87
-3 4 -53 87 -111 185 -491 818 -813 1553 -920 2103 -38 194 -50 336 -43 513
15 387 140 624 428 811 203 132 465 241 699 292 90 19 134 22 315 22 226 0
291 -8 517 -65 250 -63 476 -153 1058 -426 493 -231 757 -347 855 -374 218
-60 470 -31 663 77 409 229 679 827 648 1439 -37 739 -429 1347 -1086 1684
-263 136 -704 271 -1057 326 -122 19 -403 27 -503 14z"/>
<path d="M10035 6889 c-380 -59 -1005 -360 -1627 -785 -416 -284 -804 -606
-1108 -921 l-135 -139 -665 -449 c-2734 -1845 -5013 -3439 -6025 -4213 -223
-171 -476 -374 -472 -378 5 -5 298 153 543 291 1176 668 3364 2029 6219 3870
595 384 723 462 790 485 304 104 787 336 1116 536 50 30 95 54 99 52 5 -2 62
-75 127 -163 473 -637 913 -1001 1653 -1370 243 -121 341 -165 369 -165 33 0
83 25 110 54 19 20 26 40 29 84 6 90 -10 104 -275 232 -804 390 -1201 711
-1665 1347 -96 132 -105 148 -86 155 19 8 274 187 392 276 301 226 636 540
773 722 101 134 145 224 150 308 4 55 1 73 -17 100 -39 63 -160 92 -295 71z
m-21 -259 c50 -47 -178 -283 -554 -576 -210 -164 -595 -433 -604 -423 -32 38
-215 334 -209 339 4 3 53 35 108 70 666 422 1180 663 1259 590z m-1509 -990
c58 -88 105 -164 105 -168 0 -8 -251 -159 -418 -252 -133 -74 -403 -203 -492
-235 -144 -51 -220 -53 -220 -6 0 71 226 298 548 549 91 72 364 272 370 272 1
0 50 -72 107 -160z"/>
</g>
</svg>
